<svg width="1024" height="1024" viewBox="0 0 1024 1024" fill="none" xmlns="http://www.w3.org/2000/svg">
<path d="M521.565 53.392C530.228 58.3329 538.959 63.2274 547.406 68.5265C552.645 71.8436 554.625 77.7023 554.774 83.6536C554.873 94.0242 554.801 104.419 554.582 114.788C566.617 126.087 577.915 138.022 587.495 151.509C597.473 164.422 604.774 178.426 611.972 193.003C616.353 201.923 619.268 211.214 622.371 220.618C624.416 227.029 626.118 233.53 627.533 240.108C630.644 235.457 633.469 230.647 636.685 226.069C648.439 208.892 663.838 194.089 681.048 182.431C697.249 171.076 714.758 162.289 732.666 154.007C732.731 147.903 732.244 140.999 733.999 135.129C735.417 130.444 738.621 126.655 742.73 124.068C750.519 119.102 758.556 114.508 766.537 109.859C770.156 107.746 774.109 106.558 778.333 106.925C784.838 107.199 790.092 111.339 795.535 114.442C801.496 118.156 807.9 121.286 813.606 125.376C818.509 128.919 820.877 134.706 820.991 140.64C821.133 149.652 821.006 158.675 821.041 167.689C821.152 174.68 817.437 181.182 811.732 185.101C806.497 188.643 800.787 191.504 795.344 194.717C789.543 197.93 784.232 201.664 777.308 201.531C767.71 202.129 759.186 193.025 750.456 189.841C749.202 189.599 747.734 190.5 746.577 190.922C735.858 195.896 725.412 201.505 715.363 207.723C697.159 218.945 681.078 233.472 668.123 250.491C664.379 255.581 660.371 260.466 656.755 265.648C659.827 269.66 662.606 273.443 663.239 278.623C663.97 285.239 663.465 292.008 663.614 298.662C663.493 305.932 664.416 313.101 660.121 319.468C654.774 327.508 643.871 331.769 636.127 337.297C633.937 358.529 625.871 379.511 615.893 398.257C602.488 421.558 585.377 440.878 569.706 463.084C563.167 472.276 556.664 480.898 551.909 491.236C542.197 510.538 537.645 532.403 536.568 553.879C536.341 566.471 536.585 579.072 536.427 591.664C536.048 598.756 535.924 605.805 536.554 612.889C552.456 594.58 572.1 580.851 593.672 570.015C601.23 566.481 608.897 563.227 616.886 560.783C617.096 547.738 616.895 534.688 617.049 521.641C617.65 492.69 628.962 464.184 648.368 442.693C656.26 433.696 666.005 425.986 675.786 419.136C690.177 409.536 706.565 400.448 718.385 387.733C727.295 378.919 734.382 368.574 740.122 357.467C743.886 350.633 746.41 343.35 748.414 335.833C743.623 332.496 737.488 329.569 734.703 324.254C730.808 317.533 732.01 309.143 731.854 301.661C732.196 293.105 730.633 285.014 734.863 277.232C737.238 272.587 741.232 270.418 745.525 267.856C752.057 264.098 758.365 259.956 764.928 256.256C768.782 254.091 772.804 252.547 777.308 252.827C783.968 252.769 790.079 257.067 795.601 260.364C801.646 264.239 808.629 267.307 814.089 271.893C818.455 275.546 820.901 280.978 820.979 286.651C821.175 295.318 820.979 304 821.046 312.671C821.196 318.304 819.464 323.845 815.801 328.164C812.135 332.5 806.724 335.449 801.808 338.147C796.812 340.838 791.903 343.68 786.959 346.465C780.305 367.674 769.673 387.694 756.003 405.204C799.562 405.193 843.127 405.213 886.685 405.163C890.039 398.816 895.58 395.385 901.623 391.967C907.989 388.366 914.199 384.346 920.781 381.153C926.167 378.541 932.586 378.288 938.001 380.962C944.556 384.143 950.645 388.364 956.951 392.011C960.396 394.089 964.234 396.06 967.214 398.776C971.749 403.182 974.014 409.366 973.911 415.65C973.88 423.667 973.947 431.686 973.862 439.702C973.879 446.846 970.423 453.783 964.57 457.91C958.535 462.106 951.942 465.589 945.584 468.95C940.518 471.635 936.327 474.874 930.312 474.932C923.545 475.199 918.229 471.577 912.587 468.403C903.331 462.815 894.303 459.138 887.484 450.353C839.096 450.587 790.693 450.355 742.303 450.495C732.956 450.725 723.826 451.865 715.107 455.404C701.682 460.477 688.457 468.659 680.611 480.993C671.76 493.485 666.925 508.362 666.606 523.661C666.514 533.033 666.442 542.415 666.518 551.787C694.122 551.791 721.727 551.772 749.33 551.802C750.794 551.595 752.261 552.045 753.141 550.611C754.931 548.28 756.332 545.89 758.835 544.206C766.765 538.663 775.664 534.387 783.988 529.337C791.573 524.616 801.76 524.789 809.165 529.799C817.427 535.069 826.939 539.248 834.497 545.458C839.388 549.547 840.709 555.543 840.811 561.656C840.822 570.324 840.836 578.998 840.691 587.664C840.574 593.362 838.677 598.873 834.482 602.848C829.342 607.742 822.266 610.899 816.202 614.541C810.167 617.857 804.453 622.446 797.323 622.851C790.483 623.391 784.909 620.075 779.308 616.663C769.894 610.547 760.393 607.352 753.165 598.267C724.289 598.169 695.403 598.384 666.526 598.153C666.482 628.231 666.436 658.313 666.538 688.39C673.797 692.406 680.52 695.706 684.49 703.453C688.273 710.361 687.391 717.105 687.525 724.661C687.424 733.929 688.197 742.523 683.522 750.933C680.17 757.11 674.338 759.487 668.674 763.041C662.572 766.582 656.585 770.575 650.129 773.436C644.976 775.716 639.543 775.84 634.317 773.71C627.017 770.731 620.183 766.352 613.527 762.159C597.222 771.118 581.641 782.644 569.408 796.734C549.935 818.886 539.539 847.566 536.702 876.668C536.642 880.049 535.614 884.183 536.557 887.408C539.053 890.181 543.128 891.571 546.094 893.872C552.647 898.302 556.734 905.713 556.77 913.653C556.811 921.984 556.863 930.338 556.672 938.667C556.509 945.304 553.821 951.732 548.832 956.169C544.574 959.698 539.374 962.163 534.623 964.97C527.316 968.659 521.836 973.667 513.313 973.952C506.332 974.387 500.745 971.474 495.018 967.928C489.435 964.447 483.478 961.575 477.995 957.95C473.115 954.763 469.508 949.536 468.057 943.915C467.143 939.315 467.596 934.339 467.54 929.661C467.672 923.346 467.29 916.969 467.817 910.675C468.443 903.969 472.435 898.058 477.813 894.165C480.862 891.794 484.571 890.376 487.547 887.95C489.282 886.589 488.695 884.628 488.878 882.659C488.754 847.993 488.941 813.328 488.844 778.661C488.75 770.361 488.939 761.895 488.1 753.649C486.796 735.697 482.025 717.827 476.189 700.851C468.334 677.612 454.711 656.797 437.993 638.973C429.096 629.976 419.935 621.51 409.246 614.65C392.997 617.179 378.799 626.077 367.976 638.25C370.282 646.443 369.558 654.279 369.703 662.662C369.69 668.612 369.356 674.162 365.891 679.22C362.132 685.04 355.585 687.768 349.833 691.175C344.302 694.165 338.832 698.108 332.861 700.1C326.712 701.882 320.081 700.63 314.687 697.294C307.628 693.083 300.101 689.314 293.45 684.483C288.66 681.044 285.444 675.666 285.463 669.681C285.354 661.354 285.26 653.01 285.512 644.685C285.798 637.733 289.251 631.3 294.981 627.333C301.792 622.693 309.09 618.731 316.163 614.502C320.972 611.613 326.677 610.804 332.14 612.013C336.506 612.979 340.721 615.509 344.618 617.656C352.589 608.743 361.321 599.397 371.644 593.216C363.113 588.792 354.339 585.734 345.272 582.675C333.338 578.575 321.042 575.965 308.44 575.145C303.977 579.555 299.178 583.041 293.651 586.002C286.288 589.848 279.519 594.788 271.277 596.497C265.678 597.71 260.193 596.402 255.218 593.769C248.337 590.155 241.429 586.251 234.838 582.133C228.399 578.08 223.431 572.479 222.16 564.759C221.166 557.179 222.064 549.327 221.785 541.68C194.735 530.056 167.892 517.944 140.986 505.991C137.545 504.563 134.05 502.397 130.367 501.76C128.358 502.483 126.525 503.909 124.762 505.096C119.926 508.508 114.845 511.338 109.724 514.279C114.426 541.807 124.503 567.831 142.599 589.364C155.07 603.875 170.62 615.201 188.118 622.905C204.156 630.443 221.062 635.837 238.576 638.613C238.702 633.663 238.868 628.715 239.071 623.768C244.087 627.434 248.808 631.468 253.788 635.179C262.319 641.614 270.932 647.9 279.14 654.753C264.394 662.231 249.615 669.693 234.614 676.652C235.537 671.648 236.42 666.643 236.973 661.582C226.706 660.136 216.561 657.75 206.533 655.15C187.881 649.456 169.906 642.284 153.727 631.252C143.091 624.464 133.724 616.008 125.246 606.7C103.74 581.586 90.1867 549.663 85.9028 516.956C79.0807 513.572 72.4584 509.839 65.7921 506.164C60.8265 503.434 56.2152 500.676 53.4362 495.513C50.236 489.698 51.1365 483.036 51.0643 476.66C51.2168 469.346 50.7144 461.923 51.4392 454.643C52.0824 448.737 55.7069 444.181 60.3421 440.742C66.9564 435.935 74.6051 432.156 81.6786 428.026C85.9157 425.574 90.3265 423.768 95.3149 423.884C101.211 423.829 105.652 426.603 110.587 429.395C117.154 433.09 123.605 436.978 130.004 440.956C134.128 443.502 136.911 447.017 138.367 451.649C140.549 458.995 139.412 467.561 139.597 475.186C169.696 488.04 199.483 501.458 229.47 514.574C230.646 515.012 231.953 515.56 233.221 515.507C235.889 514.489 238.311 512.676 240.717 511.153C240.698 506.548 240.703 501.942 240.743 497.337C227.061 489.838 212.961 482.111 201.38 471.567C185.025 457.854 170.819 441.31 160.13 422.818C148.734 402.552 142.389 380.262 139.854 357.215C137.485 356.2 135.141 355.218 132.848 354.035C119.522 347.281 110.728 332.573 110.826 317.662C110.569 307.561 114.937 297.423 121.57 289.925C131.597 279.1 147.033 273.712 161.53 277.482C180.038 281.935 194.591 300.518 193.708 319.658C193.417 329.185 189.305 338.342 183.096 345.477C178.771 350.285 173.468 353.197 167.894 356.281C169.348 365.199 170.66 374.639 173.651 383.17C180.658 404.057 192.325 423.464 207.645 439.314C217.097 449.626 228.61 457.928 240.689 464.893C240.555 419.15 240.558 373.404 240.697 327.662C240.601 313.94 242.45 300.176 245.787 286.876C249.357 271.341 256.228 256.502 264.647 243.02C270.271 234.785 276.568 226.67 283.96 219.944C278.048 219.622 272.155 219.301 266.232 219.536C261.093 224.632 255.136 227.643 249.035 231.409C244.389 234.033 239.808 236.818 235.06 239.252C230.4 241.622 225.131 241.885 220.076 240.824C215.06 239.713 210.509 236.435 206.023 233.929C200.259 230.414 194.036 227.417 188.648 223.345C183.187 219.236 180.936 212.271 180.816 205.663C180.764 197.664 180.813 189.658 180.833 181.658C180.725 174.943 183.427 168.293 188.683 164.013C192.047 161.328 196.085 159.344 199.787 157.155C204.463 154.513 208.992 151.567 213.776 149.128C219.21 146.33 225.91 146.101 231.77 147.465C237.209 149.298 242.014 153.154 247.045 155.908C253.508 160.06 261.005 163.596 265.864 169.439C308.323 169.493 350.842 169.448 393.306 169.447C409.612 169.536 425.773 172.362 441.117 177.88C465.755 186.933 488.091 203.056 504.011 223.972C508.889 230.895 513.586 238.105 517.143 245.808C524.236 261.398 528.224 278.591 529.629 295.628C530.804 312.043 528.134 328.851 523.067 344.464C519.176 357.49 512.297 369.715 504.363 380.694C481.432 411.115 445.361 431.851 407.297 435.18C401.955 435.799 396.605 435.858 391.249 436.196C388.444 436.334 385.941 438.492 383.747 440.078C377.665 444.846 371.115 449.081 364.254 452.638C359.049 455.328 353.11 456.179 347.445 454.492C342.081 452.842 336.965 449.7 332.182 446.805C325.669 442.654 319.435 439.552 315.181 432.763C311.157 426.552 310.811 419.853 310.82 412.662C310.953 404.294 309.903 396.08 314.093 388.456C317.331 382.381 322.516 379.014 328.199 375.52C334.527 371.66 340.901 366.364 348.306 365.032C354.378 363.76 360.583 364.975 365.933 368.025C374.387 372.778 382.316 378.449 390.6 383.484C392.016 384.374 393.71 384.156 395.31 384.171C422.87 383.524 449.532 367.905 464.717 345.077C472.863 332.095 476.882 316.953 476.514 301.646C475.543 276.101 461.609 251.719 440.268 237.7C422.366 225.53 400.666 221.392 379.32 223.77C362.87 225.422 346.767 232.188 333.313 241.676C321.47 250.615 311.478 261.771 304.644 274.995C295.633 291.703 292.428 310.838 292.76 329.661C292.767 390.347 292.742 451.029 292.754 511.715C296.733 514.377 301.144 517.05 304.538 520.433C307.09 522.969 308.796 525.907 310.622 528.966C336.205 531.19 360.566 538.179 384.357 547.606C411.22 558.73 436.371 573.491 458.188 592.799C469.515 602.496 479.364 614.114 488.795 625.625C488.754 614.306 488.796 602.981 488.882 591.662C489.388 568.342 488.748 544.507 493.409 521.64C496.435 505.426 501.169 489.605 508.338 474.723C517.421 455.063 531.164 436.766 544.39 419.72C557.141 404.015 569.774 387.469 579.125 369.477C585.716 357.602 589.415 344.798 591.892 331.511C585.782 327.733 579.685 324.365 576.204 317.753C572.442 311.103 573.999 302.096 573.769 294.661C574.036 287.012 572.578 278.686 576.447 271.801C579.313 266.324 584.188 263.411 589.099 260.021C585.002 238.392 577.424 217.306 567.035 197.905C563.035 190.751 558.422 183.916 553.879 177.097C549.061 169.756 543.306 163.193 537.716 156.214C533.642 151.134 529.286 146.35 524.527 141.903C521.305 143.363 517.916 145.115 514.341 145.379C509.557 145.821 504.866 144.676 500.753 142.225C495.093 138.884 489.506 135.42 483.801 132.152C479.211 129.417 474.787 126.651 472.115 121.842C469.783 117.708 469.449 113.307 469.482 108.661C469.558 100.322 469.4 91.9749 469.568 83.6387C469.613 78.9738 471.496 74.4518 474.574 70.9793C477.432 67.8813 481.677 65.7653 485.28 63.6231C491.245 60.3078 496.912 56.4303 502.984 53.3232C508.72 50.3287 515.901 50.1006 521.565 53.392ZM552.429 143.189C554.781 153.591 555.769 164.492 559.052 174.63C561.951 172.264 563.682 168.462 566.037 165.553C579.199 182.43 588.927 201.389 596.727 221.252C601.316 233.576 604.79 246.42 607.794 259.215C608.653 263.857 610.006 268.68 609.94 273.416C607.998 275.613 604.789 276.831 602.769 279.108C597.909 284.521 595.487 292.53 597.233 299.67C598.094 303.297 600.053 306.691 602.456 309.515C605.094 312.573 608.608 314.128 612.127 315.925C611.558 337.764 604.654 359.796 594.867 379.21C577.337 413.271 548.885 439.393 530.416 472.764C519.484 493.145 512.401 515.666 509.815 538.652C508.633 545.924 508.57 553.224 508.062 560.553C504.173 559.843 500.266 559.256 496.367 558.607C500.911 569.205 506.558 579.344 512.155 589.414C517.908 579.137 523.556 568.814 529.605 558.704C525.268 559.235 520.933 559.778 516.604 560.365C516.598 552.056 517.437 543.842 518.646 535.631C521.313 513.171 529.096 491.26 540.333 471.68C547.465 459.487 556.714 447.872 565.205 436.578C576.944 421.157 590.148 405.527 598.982 388.334C603.295 379.935 608.017 371.321 611.03 362.385C616.189 347.57 619.13 332.259 620.58 316.659C625.349 315.637 629.758 314.158 633.317 310.663C642.161 302.74 642.368 287.336 633.929 279.043C629.751 274.696 624.366 272.854 618.54 271.916C615.761 257.192 612.41 242.406 607.848 228.126C602.928 214.297 597.099 200.712 590.208 187.748C585.049 178.277 578.36 169.185 572.228 160.321C575.636 158.981 579.037 157.624 582.481 156.377C573.013 151.021 562.42 147.551 552.429 143.189ZM222.542 171.959C211.819 173.407 202.58 183.669 203.489 194.688C203.507 203.715 210.974 212.067 219.344 214.654C230.899 217.818 243.255 209.873 246.073 198.437C249.647 184.766 236.428 170.235 222.542 171.959ZM707.48 184.019C689.347 194.131 672.347 207.426 659.094 223.468C660.905 225.337 662.708 227.214 664.505 229.098C669.662 224.123 673.977 218.476 679.387 213.753C689.345 205.107 700.015 197.128 711.42 190.485C712.304 194.548 713.172 198.613 713.956 202.696C720.191 193.519 725.927 184.076 730.905 174.155C720.3 175.445 709.721 175.005 699.094 175.421C701.277 178.725 704.815 181.071 707.48 184.019ZM771.531 279.914C761.74 282.462 754.186 293.585 755.59 303.653C756.004 308.559 758.8 313.319 762.146 316.827C769.186 323.838 780.644 324.85 788.865 319.224C794.522 315.768 797.97 309.149 798.627 302.675C799.131 293.622 793.489 284.316 785.004 280.911C780.825 279.066 775.94 278.856 771.531 279.914ZM148.589 300.976C140.894 302.956 134.965 310.625 135.815 318.671C136.347 325.2 140.195 331.195 146.447 333.543C154.476 337.326 164.757 332.222 167.814 324.217C170.108 317.938 169.081 309.706 163.73 305.231C159.837 301.84 153.713 299.377 148.589 300.976ZM346.71 390.094C339.275 392.869 333.386 399.594 332.736 407.655C331.963 415.486 335.832 423.275 342.365 427.583C346.885 430.68 353.217 431.049 358.418 429.877C369.534 426.869 376.346 414.458 372.566 403.487C369.452 392.826 357.272 386.277 346.71 390.094ZM923.72 406.157C914.615 408.637 908.148 417.332 907.815 426.659C907.586 434.008 911.688 441.197 917.583 445.421C922.794 449.201 929.794 450.058 935.904 448.244C941.92 446.367 947.011 441.708 949.664 436.021C951.529 432.073 951.346 427.026 950.947 422.78C948.789 410.684 935.601 402.292 923.72 406.157ZM836.657 410.812C837.611 415.138 838.433 419.489 839.288 423.835C808.962 423.957 778.633 423.774 748.305 423.926C738.172 424.018 727.21 423.388 717.266 425.444C703.475 428.104 690.248 434.072 678.763 442.111C669.013 448.663 660.892 458.008 654.309 467.659C642.995 484.537 637.781 504.453 637.568 524.663C637.506 558.663 637.627 592.662 637.568 626.662C637.644 632.291 637.459 637.864 636.905 643.469C633.008 642.641 629.137 642.032 625.168 641.676C630.346 652.761 636.22 663.535 641.967 674.332C647.718 663.596 653.388 652.777 658.747 641.839C654.471 642.538 650.186 643.055 645.871 643.439C645.854 631.842 645.672 620.235 645.803 608.64C645.841 599.54 649.953 590.214 657.398 584.795C662.326 581.402 668.221 578.907 674.289 578.955C686.534 578.81 698.774 579.013 711.014 578.978C710.609 583.492 710.221 588.006 709.735 592.512C719.867 586.283 730.406 580.749 740.444 574.382C730.261 568.531 719.849 563.122 709.716 557.171C710.338 561.529 710.798 565.903 711.202 570.286C700.236 570.368 689.27 570.403 678.303 570.336C671.937 570.31 665.678 571.537 659.892 574.218C654.343 576.578 650.081 580.445 645.792 584.56C645.963 569.26 645.712 553.962 645.814 538.661C645.971 527.747 645.17 517.452 647.265 506.645C650.755 488.339 659.623 470.474 673.182 457.539C689.207 441.24 711.574 432.434 734.307 432.067C769.214 431.914 804.129 432.209 839.034 431.918C838.406 436.302 837.795 440.688 837.13 445.066C844.66 440.296 852.214 435.681 860.08 431.476C862.348 430.239 864.445 428.778 866.539 427.272C857.731 422.004 848.538 417.491 839.625 412.42C838.637 411.882 837.648 411.346 836.657 410.812ZM261.684 527.103C252.166 529.594 245.125 538.772 245.416 548.657C245.107 558.9 252.897 568.407 263.066 569.93C273.372 571.85 284.395 566.118 287.625 555.931C290.79 546.794 287.754 536.738 280.22 530.768C275.069 526.833 267.949 525.341 261.684 527.103ZM324.087 553.389C331.921 561.605 340.515 569.111 348.692 576.981C349.21 572.857 349.824 568.747 350.298 564.617C357.519 565.707 364.049 568.429 370.796 571.076C388.25 578.124 404.974 586.695 420.301 597.671C431.586 606.098 442.483 614.506 451.969 624.997C473.723 647.075 490.092 674.241 498.909 703.987C503.035 716.495 505.582 729.586 507.145 742.649C508.727 755.339 507.617 767.855 508.464 780.657C508.614 814.314 508.486 848 508.546 881.661C508.442 889.282 508.853 896.833 508.229 904.441C503.69 906.03 499.494 907.899 496.313 911.654C490.419 918.042 489.346 927.846 493.5 935.447C497.986 944.108 508.601 949.074 518.074 946.321C528.843 943.333 536.135 931.653 533.313 920.668C531.225 912.189 524.735 906.833 516.711 904.125C516.679 857.633 516.663 811.152 516.646 764.661C516.659 725.053 505.187 685.431 484.061 651.935C474.241 637.549 463.185 623.434 450.126 611.838C442.113 604.341 434.091 597.121 424.965 590.97C413.733 583.298 402.044 576.003 389.704 570.243C377.537 564.795 365.098 559.793 352.328 555.939C353.498 551.75 354.785 547.619 356.262 543.528C345.406 546.321 334.728 549.874 324.087 553.389ZM790.738 553.108C785.12 554.83 780.185 558.489 777.291 563.649C772.571 571.671 774.282 582.646 780.732 589.224C786.679 595.48 796.769 598.01 804.652 594.028C810.353 591.437 814.502 586.648 816.403 580.697C819.221 572.086 816.013 561.646 808.413 556.536C803.212 553.051 796.908 551.11 790.738 553.108ZM536.507 777.852C552.959 759.816 572.022 743.72 593.283 731.635C594.428 730.935 595.659 730.232 596.635 729.302C597.596 720.519 595.588 712.548 599.648 704.03C603.309 696.283 609.817 692.671 616.973 688.704C616.924 661.074 617.179 633.432 616.867 605.806C595.083 614.062 574.598 628.222 560.737 647.119C548.685 663.47 540.65 683.006 538.078 703.175C537.131 708.647 536.537 714.103 536.524 719.663C536.361 739.057 536.566 758.457 536.507 777.852ZM323.54 635.974C315.059 637.92 308.838 645.229 307.321 653.648C305.809 664.419 314.1 675.823 325.272 676.317C334.228 677.358 342.842 671.679 345.985 663.352C349.228 656.126 346.745 647.135 341.281 641.706C336.779 637.486 329.765 634.174 323.54 635.974ZM636.643 705.023C625.262 708.089 617.036 721.234 621.259 732.688C624.301 742.374 634.264 748.865 644.338 747.946C656.364 746.693 666.026 733.662 663.084 721.791C660.392 710.417 648.337 701.7 636.643 705.023Z" fill="url(#paint0_linear_15_2)"/>
<path d="M552.429 143.189C562.42 147.551 573.013 151.021 582.481 156.377C579.037 157.624 575.636 158.981 572.228 160.321C578.36 169.185 585.05 178.277 590.208 187.748C597.099 200.712 602.928 214.297 607.848 228.126C612.41 242.406 615.761 257.192 618.54 271.916C624.366 272.854 629.751 274.696 633.929 279.043C642.368 287.336 642.161 302.74 633.317 310.663C629.758 314.158 625.349 315.637 620.58 316.659C619.13 332.259 616.189 347.57 611.03 362.385C608.017 371.321 603.295 379.935 598.982 388.334C590.148 405.527 576.944 421.157 565.205 436.578C556.714 447.872 547.465 459.487 540.333 471.68C529.096 491.26 521.313 513.171 518.646 535.631C517.437 543.842 516.598 552.056 516.604 560.365C520.933 559.778 525.268 559.235 529.605 558.704C523.556 568.814 517.908 579.137 512.155 589.414C506.558 579.344 500.911 569.205 496.367 558.607C500.266 559.256 504.173 559.843 508.062 560.553C508.57 553.224 508.633 545.924 509.815 538.652C512.401 515.666 519.484 493.145 530.416 472.764C548.885 439.393 577.337 413.271 594.867 379.21C604.654 359.796 611.558 337.764 612.127 315.925C608.608 314.128 605.094 312.573 602.456 309.515C600.053 306.691 598.094 303.297 597.233 299.67C595.487 292.53 597.909 284.521 602.769 279.108C604.789 276.831 607.998 275.613 609.94 273.416C610.006 268.68 608.653 263.857 607.794 259.215C604.79 246.42 601.316 233.576 596.727 221.252C588.927 201.389 579.199 182.43 566.037 165.553C563.682 168.462 561.951 172.264 559.052 174.63C555.769 164.492 554.781 153.591 552.429 143.189Z" fill="#08C7ED"/>
<path d="M699.094 175.421C709.721 175.005 720.3 175.445 730.905 174.155C725.927 184.076 720.191 193.519 713.956 202.696C713.172 198.613 712.304 194.548 711.42 190.485C700.015 197.128 689.345 205.107 679.387 213.753C673.977 218.476 669.662 224.123 664.505 229.098C662.708 227.214 660.905 225.337 659.094 223.468C672.347 207.426 689.347 194.131 707.48 184.019C704.815 181.071 701.277 178.725 699.094 175.421Z" fill="#08C7ED"/>
<path d="M836.657 410.812C837.648 411.346 838.637 411.882 839.625 412.42C848.538 417.491 857.731 422.004 866.539 427.272C864.445 428.778 862.348 430.239 860.08 431.476C852.214 435.681 844.66 440.296 837.13 445.066C837.795 440.688 838.406 436.302 839.034 431.918C804.129 432.209 769.214 431.914 734.307 432.067C711.574 432.434 689.207 441.24 673.182 457.539C659.623 470.474 650.755 488.339 647.265 506.645C645.17 517.452 645.971 527.747 645.814 538.661C645.712 553.962 645.963 569.26 645.792 584.56C650.081 580.445 654.343 576.578 659.892 574.218C665.678 571.538 671.937 570.31 678.303 570.336C689.27 570.403 700.236 570.368 711.202 570.286C710.798 565.903 710.338 561.529 709.716 557.171C719.849 563.122 730.261 568.531 740.444 574.382C730.406 580.749 719.867 586.283 709.735 592.512C710.221 588.006 710.609 583.492 711.014 578.978C698.774 579.013 686.534 578.81 674.289 578.955C668.221 578.907 662.326 581.402 657.398 584.795C649.953 590.214 645.841 599.54 645.803 608.64C645.672 620.235 645.854 631.842 645.871 643.439C650.186 643.055 654.471 642.538 658.747 641.839C653.388 652.777 647.718 663.596 641.967 674.332C636.22 663.535 630.346 652.761 625.168 641.676C629.137 642.032 633.008 642.641 636.905 643.469C637.459 637.864 637.644 632.291 637.568 626.662C637.627 592.662 637.506 558.663 637.568 524.663C637.781 504.453 642.995 484.537 654.309 467.659C660.892 458.008 669.013 448.663 678.763 442.111C690.248 434.072 703.475 428.104 717.266 425.444C727.21 423.388 738.172 424.018 748.305 423.926C778.633 423.774 808.962 423.957 839.288 423.835C838.433 419.489 837.611 415.138 836.657 410.812Z" fill="#08C7ED"/>
<path d="M356.262 543.528C354.785 547.619 353.498 551.75 352.328 555.939C365.098 559.793 377.537 564.795 389.704 570.243C402.044 576.003 413.733 583.298 424.965 590.97C434.091 597.121 442.113 604.341 450.126 611.838C463.185 623.434 474.241 637.549 484.061 651.935C505.187 685.431 516.659 725.053 516.646 764.661C516.663 811.152 516.679 857.633 516.711 904.125C524.735 906.833 531.225 912.189 533.313 920.668C536.135 931.653 528.843 943.333 518.074 946.321C508.601 949.074 497.986 944.108 493.5 935.447C489.346 927.846 490.419 918.042 496.313 911.654C499.494 907.899 503.69 906.03 508.229 904.441C508.853 896.833 508.442 889.282 508.546 881.661C508.486 848 508.614 814.314 508.464 780.658C507.617 767.855 508.727 755.339 507.145 742.649C505.582 729.586 503.035 716.495 498.909 703.987C490.092 674.241 473.723 647.075 451.969 624.997C442.483 614.506 431.586 606.098 420.301 597.671C404.974 586.695 388.25 578.124 370.796 571.076C364.049 568.429 357.519 565.707 350.298 564.617C349.824 568.747 349.21 572.857 348.692 576.982C340.515 569.111 331.921 561.605 324.087 553.389C334.728 549.874 345.406 546.321 356.262 543.528Z" fill="#08C7ED"/>
<path d="M261.684 527.103C267.949 525.341 275.069 526.833 280.22 530.768C287.754 536.738 290.79 546.794 287.625 555.931C284.395 566.118 273.372 571.85 263.066 569.93C252.897 568.407 245.107 558.9 245.416 548.657C245.125 538.772 252.166 529.594 261.684 527.103Z" fill="#08C7ED"/>
<path d="M222.542 171.959C236.428 170.235 249.647 184.766 246.073 198.437C243.255 209.873 230.899 217.818 219.344 214.654C210.974 212.067 203.507 203.715 203.489 194.688C202.58 183.669 211.819 173.407 222.542 171.959Z" fill="#08C7ED"/>
<path d="M771.531 279.914C775.94 278.856 780.825 279.066 785.004 280.911C793.489 284.316 799.131 293.623 798.627 302.675C797.971 309.149 794.522 315.768 788.865 319.224C780.644 324.85 769.186 323.838 762.146 316.827C758.8 313.319 756.004 308.559 755.59 303.653C754.186 293.585 761.74 282.462 771.531 279.914Z" fill="#08C7ED"/>
<path d="M148.589 300.976C153.713 299.377 159.837 301.84 163.73 305.231C169.081 309.706 170.108 317.938 167.814 324.217C164.757 332.222 154.476 337.326 146.447 333.543C140.195 331.195 136.347 325.2 135.815 318.671C134.965 310.625 140.894 302.956 148.589 300.976Z" fill="#08C7ED"/>
<path d="M346.71 390.094C357.272 386.277 369.452 392.826 372.566 403.487C376.346 414.458 369.534 426.869 358.418 429.877C353.217 431.049 346.885 430.68 342.365 427.583C335.832 423.275 331.963 415.486 332.736 407.655C333.386 399.594 339.275 392.869 346.71 390.094Z" fill="#08C7ED"/>
<path d="M923.72 406.157C935.601 402.292 948.789 410.684 950.947 422.78C951.346 427.026 951.529 432.073 949.664 436.021C947.011 441.708 941.92 446.367 935.904 448.244C929.795 450.058 922.794 449.201 917.583 445.421C911.688 441.197 907.586 434.008 907.815 426.659C908.148 417.332 914.615 408.637 923.72 406.157Z" fill="#08C7ED"/>
<path d="M790.738 553.108C796.908 551.11 803.212 553.051 808.413 556.536C816.013 561.646 819.221 572.086 816.403 580.697C814.502 586.648 810.353 591.437 804.652 594.028C796.769 598.01 786.679 595.48 780.732 589.224C774.282 582.646 772.571 571.671 777.291 563.649C780.186 558.489 785.12 554.83 790.738 553.108Z" fill="#08C7ED"/>
<path d="M323.54 635.974C329.765 634.175 336.779 637.486 341.281 641.706C346.745 647.135 349.228 656.126 345.985 663.352C342.842 671.679 334.228 677.358 325.272 676.317C314.1 675.823 305.809 664.419 307.321 653.648C308.838 645.229 315.059 637.92 323.54 635.974Z" fill="#08C7ED"/>
<path d="M636.643 705.023C648.337 701.7 660.392 710.417 663.084 721.791C666.026 733.662 656.364 746.693 644.338 747.946C634.264 748.865 624.301 742.374 621.259 732.688C617.036 721.234 625.262 708.089 636.643 705.023Z" fill="#08C7ED"/>
<defs>
<linearGradient id="paint0_linear_15_2" x1="434" y1="695" x2="767.5" y2="29.5" gradientUnits="userSpaceOnUse">
<stop stop-color="#7143F4"/>
<stop offset="1" stop-color="#9AB0FF"/>
</linearGradient>
</defs>
</svg>
